<?xml version="1.0" encoding="utf-8"?>
<!-- Generator: Adobe Illustrator 16.0.3, SVG Export Plug-In . SVG Version: 6.00 Build 0)  -->
<!DOCTYPE svg PUBLIC "-//W3C//DTD SVG 1.1//EN" "http://www.w3.org/Graphics/SVG/1.1/DTD/svg11.dtd">
<svg version="1.1" id="Capa_1" xmlns="http://www.w3.org/2000/svg" x="0px" y="0px"
     width="429.5px" height="439.478px" viewBox="0 0 429.5 439.478" enable-background="new 0 0 429.5 439.478"
     xml:space="preserve">
<g>
	<path fill="#F9F9F9" d="M418.235,396.675c6.201,5.767,7.568,14.375,3.056,19.228l-12.658,13.61
		c-4.513,4.854-13.199,4.112-19.397-1.653L218.776,269.332c-6.201-5.766-7.568-14.375-3.055-19.228l12.657-13.61
		c4.514-4.853,13.198-4.113,19.399,1.654L418.235,396.675z"/>
    <path fill="#F9F9F9" d="M143.846,24.695c-75.762,0-137.179,61.417-137.179,137.179s61.417,137.179,137.179,137.179
		c75.763,0,137.18-61.417,137.18-137.179S219.609,24.695,143.846,24.695z M143.847,269.994c-59.713,0-108.119-48.407-108.119-108.12
		c0-59.713,48.406-108.12,108.119-108.12c59.712,0,108.119,48.407,108.119,108.12C251.965,221.587,203.559,269.994,143.847,269.994z
		"/>
</g>
</svg>
