<?xml version="1.0" encoding="utf-8"?>
<!-- Generator: Adobe Illustrator 16.0.3, SVG Export Plug-In . SVG Version: 6.00 Build 0)  -->
<!DOCTYPE svg PUBLIC "-//W3C//DTD SVG 1.1//EN" "http://www.w3.org/Graphics/SVG/1.1/DTD/svg11.dtd">
<svg version="1.1" id="Capa_1" xmlns="http://www.w3.org/2000/svg" x="0px" y="0px"
     width="257.788px" height="232.432px" viewBox="0 0 257.788 232.432" enable-background="new 0 0 257.788 232.432"
     xml:space="preserve">
<path fill="#FFFFFF" d="M228.846,108.083L228.846,108.083h-21.919H47.791l90.4-90.229c0.284-0.252,0.556-0.521,0.811-0.81
	l0.527-0.525l-0.061-0.049c1.061-1.416,1.751-3.196,1.751-5.357c0-5.179-4.366-9.377-9.753-9.377c-2.666,0-5.08,1.032-6.842,2.7
	l-0.014-0.012L19.748,109.088c-4.127,4.118-4.134,10.803-0.014,14.93l104.429,104.626c1.777,2.295,4.612,3.788,7.816,3.788
	c4.077,0,9.753-3.143,9.753-9.377c0-2.352-0.906-4.495-2.393-6.141v-0.152l-90.508-90.679h158.094h22.068
	c4.188-0.774,7.371-4.531,7.371-9.01S233.035,108.857,228.846,108.083z"/>
</svg>
