<?xml version="1.0" encoding="utf-8"?>
<!-- Generator: Adobe Illustrator 16.0.3, SVG Export Plug-In . SVG Version: 6.00 Build 0)  -->
<!DOCTYPE svg PUBLIC "-//W3C//DTD SVG 1.1//EN" "http://www.w3.org/Graphics/SVG/1.1/DTD/svg11.dtd">
<svg version="1.1" id="Capa_1" xmlns="http://www.w3.org/2000/svg" x="0px" y="0px"
     width="257.788px" height="232.432px" viewBox="0 0 257.788 232.432" enable-background="new 0 0 257.788 232.432"
     xml:space="preserve">
<path opacity="0.5" d="M257.788,220.432c0,6.627-5.372,12-12,12H12c-6.627,0-12-5.373-12-12V12C0,5.373,5.373,0,12,0h233.788
	c6.628,0,12,5.373,12,12V220.432z"/>
    <path fill="#FFFFFF" d="M229.433,107.918L229.433,107.918h-20.209H62.504l83.348-83.189c0.262-0.233,0.512-0.481,0.747-0.747
	l0.486-0.484l-0.056-0.046c0.978-1.305,1.614-2.947,1.614-4.939c0-4.775-4.025-8.646-8.992-8.646c-2.458,0-4.684,0.951-6.308,2.489
	l-0.013-0.011l-96.682,96.5c-3.805,3.797-3.812,9.96-0.013,13.765l96.281,96.463c1.639,2.115,4.252,3.492,7.206,3.492
	c3.759,0,8.992-2.897,8.992-8.646c0-2.168-0.836-4.145-2.206-5.661v-0.141l-83.446-83.604h145.759h20.347
	c3.861-0.714,6.796-4.178,6.796-8.307S233.295,108.632,229.433,107.918z"/>
</svg>
