<?xml version="1.0" encoding="utf-8"?>
<!-- Generator: Adobe Illustrator 16.0.3, SVG Export Plug-In . SVG Version: 6.00 Build 0)  -->
<!DOCTYPE svg PUBLIC "-//W3C//DTD SVG 1.1//EN" "http://www.w3.org/Graphics/SVG/1.1/DTD/svg11.dtd">
<svg version="1.1" id="Capa_1" xmlns="http://www.w3.org/2000/svg" x="0px" y="0px"
	 width="429.5px" height="439.478px" viewBox="0 0 429.5 439.478" enable-background="new 0 0 429.5 439.478"
	 xml:space="preserve">
<path opacity="0.5" d="M429.5,427.478c0,6.627-5.372,12-12,12H12c-6.627,0-12-5.373-12-12V12C0,5.373,5.373,0,12,0h405.5
	c6.628,0,12,5.373,12,12V427.478z"/>
	<path fill="#F9F9F9" d="M395.148,378.692L251.61,232.813c16.458-20.137,26.805-45.561,28.046-73.542
	c3.061-69.01-50.4-127.436-119.412-130.497c-69.01-3.062-127.435,50.4-130.496,119.411c-3.062,69.01,50.4,127.435,119.41,130.498
	c27.017,1.197,52.411-6.269,73.497-19.938l144.818,147.178c5.412,5.503,13.294,6.529,17.602,2.291l12.08-11.887
	C401.461,392.092,400.564,384.195,395.148,378.692z M56.218,149.36c2.413-54.391,48.46-96.528,102.853-94.115
	c54.39,2.413,96.525,48.461,94.113,102.853c-2.413,54.392-48.461,96.528-102.851,94.115C95.941,249.8,53.805,203.752,56.218,149.36z
	"/>
</svg>
